# xmcd
#
# Track frame offsets: 
#        150
#        11358
#        23438
#        32511
#        45394
#        57337
#        68619
#        82129
#        91801
#        101607
#        111820
#        122228
#        132785
#        141191
#        154257
#        165352
#        175276
#        188148
#        198972
#        209359
#        222684
#        231454
#        241710
#        253177
#        262845
#
# Disc length: 3642 seconds
#
# Revision: 0
# Processed by: cddbd v1.5.2PL0 Copyright (c) Steve Scherf et al.
# Submitted via: ExactAudioCopyFreeDBPlugin 1.0
#
DISCID=520e3819
DTITLE=Various Artist - The Okeh Story [CD2)
DYEAR=1900
DGENRE=Doo Wop - Rhythm and Blues
TTITLE0=The Buddies - Castle Of Love
TTITLE1=Billy Stewart and The Marquees - Baby You're My Only Love
TTITLE2=Screamin' Jay Hawkins - You Made Me Love You
TTITLE3=Big Maybelle - One Monkey Don't Stop No Show
TTITLE4=Dave 'Baby' Cortez - Honey Baby
TTITLE5=Derrell Felts - It's A Great Big Day
TTITLE6=Doc Bagby - Sylvia's Callin'
TTITLE7=Lois Lee - I've Got It Bad For You Baby
TTITLE8=The Schoolboys - Pearl
TTITLE9=Hurricane Harry - Last Meal
TTITLE10=Little Joe and The Thrillers - Please Don't Go
TTITLE11=The Dolls - Please Come Home
TTITLE12=Frankie Tyler (Frankie Valli) - If You Care
TTITLE13=Chuck Willis - Two Spoons Of Tears
TTITLE14=Jolly Boy Shepard - You Care
TTITLE15=Screamin' Jay Hawkins - Frenzy
TTITLE16=Five Scamps - Red Hot
TTITLE17=Marquees (feat. Marvin Gaye) - Wyatt Earp
TTITLE18=Brook Benton - Bring Me Love
TTITLE19=Big Maybelle - I've Got A Feelin'
TTITLE20=Gar Bacon - Marshall, Marshall
TTITLE21=Little Joe and The Thrillers - Run Little Girl
TTITLE22=The Smooth-Tones - Don't Keep Our Love Hidden In The Dark
TTITLE23=The Skee Brothers - 4 Aces Of Love
TTITLE24=The Troys - Ding-A-Ling-A-Ling
EXTD=
EXTT0=
EXTT1=
EXTT2=
EXTT3=
EXTT4=
EXTT5=
EXTT6=
EXTT7=
EXTT8=
EXTT9=
EXTT10=
EXTT11=
EXTT12=
EXTT13=
EXTT14=
EXTT15=
EXTT16=
EXTT17=
EXTT18=
EXTT19=
EXTT20=
EXTT21=
EXTT22=
EXTT23=
EXTT24=
PLAYORDER=
